<svg width="486" height="363" viewBox="0 0 486 363" fill="none" xmlns="http://www.w3.org/2000/svg">
<path d="M39.5517 358.263L26.2497 347.786L1.68397 305.237L250.092 161.819L262.394 170.622L275.346 205.766L39.5517 358.263Z" fill="white" stroke="black"/>
<rect x="26.8895" y="348.298" width="49.6652" height="285.659" transform="rotate(-120 26.8895 348.298)" fill="#C091BE" stroke="black" stroke-width="2"/>
<path d="M326.148 185.488L317.271 177.569L293.838 136.982L365.343 95.6985L403.588 107.247L392.792 140.346L326.148 185.488Z" fill="white" stroke="black"/>
<path d="M360.497 253.561L359.658 253.612L355.413 246.259L382.954 134.644L403.797 141.076L360.497 253.561Z" fill="white" stroke="black"/>
<path d="M381.558 128.435L248.043 89.5299L256.79 62.0266L264.15 61.3107L386.432 107.066L381.558 128.435Z" fill="white" stroke="black"/>
<mask id="path-6-inside-1_7185_1413" fill="white">
<path fill-rule="evenodd" clip-rule="evenodd" d="M264.293 60.6165L257.607 85.5689L353.655 111.305L300.596 141.938L326.428 186.682L386.454 152.026L359.27 253.905L384.043 260.756L429.562 105.1L429.718 104.676L429.688 104.668L429.696 104.644L429.67 104.663L388.964 94.0221L264.293 60.6165Z"/>
</mask>
<path fill-rule="evenodd" clip-rule="evenodd" d="M264.293 60.6165L257.607 85.5689L353.655 111.305L300.596 141.938L326.428 186.682L386.454 152.026L359.27 253.905L384.043 260.756L429.562 105.1L429.718 104.676L429.688 104.668L429.696 104.644L429.67 104.663L388.964 94.0221L264.293 60.6165Z" fill="#C091BE"/>
<path d="M257.607 85.5689L255.675 85.0513L255.157 86.9831L257.089 87.5008L257.607 85.5689ZM264.293 60.6165L264.81 58.6847L262.878 58.167L262.361 60.0989L264.293 60.6165ZM353.655 111.305L354.655 113.037L358.836 110.623L354.172 109.373L353.655 111.305ZM300.596 141.938L299.596 140.206L297.864 141.206L298.864 142.938L300.596 141.938ZM326.428 186.682L324.696 187.682L325.696 189.414L327.428 188.414L326.428 186.682ZM386.454 152.026L388.386 152.542L389.629 147.883L385.454 150.294L386.454 152.026ZM359.27 253.905L357.338 253.39L356.827 255.305L358.737 255.833L359.27 253.905ZM384.043 260.756L383.51 262.684L385.41 263.209L385.963 261.318L384.043 260.756ZM429.562 105.1L427.685 104.409L427.662 104.473L427.643 104.538L429.562 105.1ZM429.718 104.676L431.595 105.366L432.356 103.298L430.224 102.741L429.718 104.676ZM429.688 104.668L427.769 104.106L427.191 106.083L429.183 106.603L429.688 104.668ZM429.696 104.644L431.615 105.205L433.321 99.3744L428.485 103.052L429.696 104.644ZM429.67 104.663L429.164 106.598L430.106 106.844L430.881 106.255L429.67 104.663ZM388.964 94.0221L388.446 95.954L388.458 95.9571L388.964 94.0221ZM259.539 86.0865L266.224 61.1342L262.361 60.0989L255.675 85.0513L259.539 86.0865ZM354.172 109.373L258.124 83.6371L257.089 87.5008L353.137 113.237L354.172 109.373ZM352.655 109.573L299.596 140.206L301.596 143.67L354.655 113.037L352.655 109.573ZM298.864 142.938L324.696 187.682L328.16 185.682L302.328 140.938L298.864 142.938ZM327.428 188.414L387.454 153.758L385.454 150.294L325.428 184.95L327.428 188.414ZM384.522 151.51L357.338 253.39L361.202 254.421L388.386 152.542L384.522 151.51ZM358.737 255.833L383.51 262.684L384.576 258.829L359.803 251.978L358.737 255.833ZM385.963 261.318L431.482 105.661L427.643 104.538L382.124 260.195L385.963 261.318ZM431.439 105.79L431.595 105.366L427.841 103.985L427.685 104.409L431.439 105.79ZM430.224 102.741L430.194 102.733L429.183 106.603L429.213 106.611L430.224 102.741ZM431.608 105.23L431.615 105.205L427.776 104.082L427.769 104.106L431.608 105.23ZM428.485 103.052L428.459 103.071L430.881 106.255L430.906 106.236L428.485 103.052ZM430.176 102.728L389.47 92.0872L388.458 95.9571L429.164 106.598L430.176 102.728ZM263.775 62.5484L388.446 95.954L389.482 92.0903L264.81 58.6847L263.775 62.5484Z" fill="black" mask="url(#path-6-inside-1_7185_1413)"/>
<path d="M299 67C508 86.5 456.101 184.6 434.501 177C407.501 167.5 461.501 128 464.001 163C466.501 198 434.501 222 434.501 266.5C434.667 277.667 436 300.2 440 301" stroke="black"/>
<circle cx="434.5" cy="265.5" r="5.5" fill="black"/>
<circle cx="275.5" cy="44.5" r="5.5" fill="black"/>
<rect x="433" y="268" width="4" height="17" rx="2" fill="black"/>
<rect x="274" y="47" width="4" height="17" rx="2" fill="black"/>
<rect x="435.344" y="282" width="2.50383" height="10.6202" rx="1.25192" transform="rotate(51.7834 435.344 282)" fill="black"/>
<rect x="276.344" y="61" width="2.50383" height="10.6202" rx="1.25192" transform="rotate(51.7834 276.344 61)" fill="black"/>
<rect x="436.449" y="273.31" width="2.50383" height="10.6202" rx="1.25192" transform="rotate(120 436.449 273.31)" fill="black"/>
<rect x="277.512" y="53.6132" width="2.50383" height="7.22628" rx="1.25192" transform="rotate(120 277.512 53.6132)" fill="black"/>
<rect x="443.199" y="271" width="2.50383" height="10.6202" rx="1.25192" transform="rotate(60 443.199 271)" fill="black"/>
<path d="M279.349 50.2903C280.247 49.7517 281.377 50.4562 281.289 51.4997C281.254 51.9188 281.016 52.294 280.652 52.5043L278.346 53.8356C277.742 54.1842 276.97 53.9773 276.621 53.3736C276.277 52.7769 276.474 52.0142 277.065 51.6598L279.349 50.2903Z" fill="black"/>
<rect x="444.449" y="272.31" width="2.50383" height="10.6202" rx="1.25192" transform="rotate(120 444.449 272.31)" fill="black"/>
<rect x="281.504" y="60.6201" width="2.50383" height="10.6202" rx="1.25192" transform="rotate(-180 281.504 60.6201)" fill="black"/>
<rect x="300.504" y="70.6201" width="2.50383" height="10.6202" rx="1.25192" transform="rotate(-180 300.504 70.6201)" fill="black"/>
<rect x="427.77" y="271.28" width="2.50383" height="10.6202" rx="1.25192" transform="rotate(-135 427.77 271.28)" fill="black"/>
<rect x="275.168" y="60.2583" width="2.50383" height="10.6202" rx="1.25192" transform="rotate(165 275.168 60.2583)" fill="black"/>
<rect x="427" y="288.771" width="2.50383" height="7.56282" rx="1.25192" transform="rotate(-45 427 288.771)" fill="black"/>
<rect x="268" y="67.7705" width="2.50383" height="7.56282" rx="1.25192" transform="rotate(-45 268 67.7705)" fill="black"/>
<rect x="280.348" y="65" width="2.50383" height="7.56282" rx="1.25192" transform="rotate(45 280.348 65)" fill="black"/>
<rect x="433" y="286.771" width="2.50383" height="7.56282" rx="1.25192" transform="rotate(-45 433 286.771)" fill="black"/>
<rect x="275" y="62.7705" width="2.50383" height="7.56282" rx="1.25192" transform="rotate(-45 275 62.7705)" fill="black"/>
<circle cx="299.5" cy="60.5" r="4" fill="white" stroke="black" stroke-width="3"/>
<line x1="432.164" y1="94.0502" x2="437.05" y2="81.8356" stroke="black" stroke-width="3" stroke-linecap="round"/>
<line x1="439.061" y1="101.344" x2="451.768" y2="97.9394" stroke="black" stroke-width="3" stroke-linecap="round"/>
<line x1="437" y1="96.8787" x2="448.879" y2="85" stroke="black" stroke-width="3" stroke-linecap="round"/>
</svg>
