<svg width="340" height="214" viewBox="0 0 340 214" fill="none" xmlns="http://www.w3.org/2000/svg">
<path d="M5.33157 157.483L0.499999 145.404L0.499998 107.5L222.678 107.5L227.481 118.067L222.575 146.521L5.33157 157.483Z" fill="white" stroke="black"/>
<path d="M301.106 150.057L236.728 212.936L223.908 198.691L289.731 137.794L301.106 150.057Z" fill="white" stroke="black"/>
<mask id="path-3-inside-1_781_1027" fill="white">
<path fill-rule="evenodd" clip-rule="evenodd" d="M245.642 32.4218L231.5 46.5639L285.935 100.998L238.5 100.998L238.5 140.998L292.166 140.998L234.5 198.786L248.458 212.969L339.262 126.196L339.5 125.998L339.485 125.984L339.5 125.969L339.474 125.973L316.35 103.13L245.642 32.4218Z"/>
</mask>
<path fill-rule="evenodd" clip-rule="evenodd" d="M245.642 32.4218L231.5 46.5639L285.935 100.998L238.5 100.998L238.5 140.998L292.166 140.998L234.5 198.786L248.458 212.969L339.262 126.196L339.5 125.998L339.485 125.984L339.5 125.969L339.474 125.973L316.35 103.13L245.642 32.4218Z" fill="#C091BE"/>
<path d="M231.5 46.5639L230.086 45.1497L228.672 46.5639L230.086 47.9781L231.5 46.5639ZM245.642 32.4218L247.056 31.0076L245.642 29.5933L244.228 31.0076L245.642 32.4218ZM285.935 100.998L285.935 102.998L290.763 102.998L287.349 99.5842L285.935 100.998ZM238.5 100.998L238.5 98.9985L236.5 98.9985L236.5 100.998L238.5 100.998ZM238.5 140.998L236.5 140.998L236.5 142.998L238.5 142.998L238.5 140.998ZM292.166 140.998L293.582 142.411L296.987 138.998L292.166 138.998L292.166 140.998ZM234.5 198.786L233.084 197.373L231.684 198.776L233.075 200.188L234.5 198.786ZM248.458 212.969L247.033 214.372L248.415 215.777L249.84 214.415L248.458 212.969ZM339.262 126.196L337.982 124.66L337.93 124.704L337.881 124.75L339.262 126.196ZM339.5 125.998L340.78 127.535L342.473 126.124L340.905 124.576L339.5 125.998ZM339.485 125.984L338.103 124.538L336.615 125.96L338.08 127.407L339.485 125.984ZM339.5 125.969L340.882 127.415L345.272 123.219L339.248 123.985L339.5 125.969ZM339.474 125.973L338.068 127.396L338.761 128.079L339.726 127.957L339.474 125.973ZM316.35 103.13L314.936 104.544L314.945 104.553L316.35 103.13ZM232.914 47.9781L247.056 33.836L244.228 31.0076L230.086 45.1497L232.914 47.9781ZM287.349 99.5842L232.914 45.1497L230.086 47.9781L284.52 102.413L287.349 99.5842ZM285.935 98.9985L238.5 98.9985L238.5 102.998L285.935 102.998L285.935 98.9985ZM236.5 100.998L236.5 140.998L240.5 140.998L240.5 100.998L236.5 100.998ZM238.5 142.998L292.166 142.998L292.166 138.998L238.5 138.998L238.5 142.998ZM290.75 139.586L233.084 197.373L235.916 200.198L293.582 142.411L290.75 139.586ZM233.075 200.188L247.033 214.372L249.884 211.566L235.926 197.383L233.075 200.188ZM249.84 214.415L340.644 127.642L337.881 124.75L247.076 211.523L249.84 214.415ZM340.543 127.733L340.78 127.535L338.22 124.462L337.982 124.66L340.543 127.733ZM340.905 124.576L340.891 124.561L338.08 127.407L338.095 127.421L340.905 124.576ZM340.867 127.43L340.882 127.415L338.118 124.523L338.103 124.538L340.867 127.43ZM339.248 123.985L339.222 123.989L339.726 127.957L339.752 127.953L339.248 123.985ZM340.879 124.55L317.756 101.707L314.945 104.553L338.068 127.396L340.879 124.55ZM244.228 33.836L314.936 104.544L317.764 101.716L247.056 31.0076L244.228 33.836Z" fill="black" mask="url(#path-3-inside-1_781_1027)"/>
<rect x="6" y="141" width="38" height="221" transform="rotate(-90 6 141)" fill="#C091BE" stroke="black" stroke-width="2"/>
</svg>
