<svg width="435" height="33" viewBox="0 0 435 33" fill="none" xmlns="http://www.w3.org/2000/svg">
<path d="M28.3475 32.0002V1.2002H21.1755L0 32.0002H7.02952L9.31009 28.2602H23.0381V32.0002H28.3475ZM23.0381 7.48437V22.6722H12.6792L23.0381 7.48437Z" fill="black"/>
<path d="M49.0627 16.2483C52.7147 15.5443 54.9587 13.1243 54.9587 9.20831C54.9587 4.23631 51.1747 1.20031 45.0587 1.20031H32.3867V32.0003H45.5427C51.6587 32.0003 55.3987 28.7443 55.3987 23.4643C55.3987 19.2843 52.7587 16.6003 49.0627 16.2483ZM43.4747 6.34831C46.2467 6.34831 47.8307 7.75631 47.8307 10.0883C47.8307 12.4203 46.1587 13.8283 43.4747 13.8283H39.5147V6.34831H43.4747ZM39.5147 26.5883V18.7563H43.9587C46.5547 18.7563 48.2267 20.2523 48.2267 22.5403C48.2267 25.0483 46.5987 26.5883 43.9587 26.5883H39.5147Z" fill="black"/>
<path d="M86.2059 28.1283C89.1979 25.0043 90.6939 21.1323 90.6939 16.6003C90.6939 12.0683 89.1979 8.19631 86.2059 5.02831C83.2139 1.90431 79.2099 0.320312 74.2379 0.320312C69.2659 0.320312 65.2619 1.90431 62.2699 5.02831C59.2779 8.19631 57.7819 12.0683 57.7819 16.6003C57.7819 21.1323 59.2779 25.0043 62.2699 28.1283C65.2619 31.2963 69.2659 32.8803 74.2379 32.8803C79.2099 32.8803 83.2139 31.2963 86.2059 28.1283ZM74.2379 26.5003C71.3779 26.5003 69.1779 25.5323 67.5939 23.6403C65.9659 21.7483 65.1739 19.4163 65.2179 16.6003C65.1739 13.7843 65.9659 11.4083 67.5939 9.51631C69.1779 7.62431 71.3779 6.70031 74.2379 6.70031C77.0539 6.70031 79.2539 7.62431 80.8819 9.51631C82.4659 11.4083 83.2579 13.7843 83.2579 16.6003C83.2579 19.4163 82.4659 21.7483 80.8819 23.6403C79.2539 25.5323 77.0539 26.5003 74.2379 26.5003Z" fill="black"/>
<path d="M115.632 29.8443C117.876 27.8643 118.976 25.1363 118.976 21.5723V1.20031H111.848V21.1323C111.848 24.6083 109.824 26.6323 106.524 26.6323C103.224 26.6323 101.2 24.6083 101.2 21.1323V1.20031H94.1163V21.5723C94.1163 25.1363 95.2163 27.8643 97.4603 29.8443C99.6603 31.8243 102.696 32.7923 106.524 32.7923C110.352 32.7923 113.388 31.8243 115.632 29.8443Z" fill="black"/>
<path d="M137.014 32.0003V7.53631H145.506V1.20031H121.482V7.53631H129.93V32.0003H137.014Z" fill="black"/>
<path d="M186.022 28.1283C189.014 25.0043 190.51 21.1323 190.51 16.6003C190.51 12.0683 189.014 8.19631 186.022 5.02831C183.03 1.90431 179.026 0.320312 174.054 0.320312C169.082 0.320312 165.078 1.90431 162.086 5.02831C159.094 8.19631 157.598 12.0683 157.598 16.6003C157.598 21.1323 159.094 25.0043 162.086 28.1283C165.078 31.2963 169.082 32.8803 174.054 32.8803C179.026 32.8803 183.03 31.2963 186.022 28.1283ZM174.054 26.5003C171.194 26.5003 168.994 25.5323 167.41 23.6403C165.782 21.7483 164.99 19.4163 165.034 16.6003C164.99 13.7843 165.782 11.4083 167.41 9.51631C168.994 7.62431 171.194 6.70031 174.054 6.70031C176.87 6.70031 179.07 7.62431 180.698 9.51631C182.282 11.4083 183.074 13.7843 183.074 16.6003C183.074 19.4163 182.282 21.7483 180.698 23.6403C179.07 25.5323 176.87 26.5003 174.054 26.5003Z" fill="black"/>
<path d="M215.449 29.8443C217.693 27.8643 218.793 25.1363 218.793 21.5723V1.20031H211.665V21.1323C211.665 24.6083 209.641 26.6323 206.341 26.6323C203.041 26.6323 201.017 24.6083 201.017 21.1323V1.20031H193.933V21.5723C193.933 25.1363 195.033 27.8643 197.277 29.8443C199.477 31.8243 202.513 32.7923 206.341 32.7923C210.169 32.7923 213.205 31.8243 215.449 29.8443Z" fill="black"/>
<path d="M248.226 12.3323C248.226 9.12031 247.17 6.43631 245.102 4.32431C243.034 2.25631 240.394 1.20031 237.182 1.20031H224.07V32.0003H231.198V23.4643H234.938L239.778 32.0003H247.874L242.462 22.2323C246.026 20.4723 248.226 16.7763 248.226 12.3323ZM236.082 7.00831C238.942 7.00831 241.01 9.20831 241.01 12.3323C241.01 15.4563 238.942 17.6563 236.082 17.6563H231.198V7.00831H236.082Z" fill="black"/>
<path d="M273.507 32.8803C276.895 32.8803 279.667 32.0003 281.735 30.2843C283.803 28.5683 284.815 26.2363 284.815 23.3763C284.815 19.1963 282.747 16.3363 278.611 14.7083L273.507 12.6843C270.471 11.4523 269.283 10.3963 269.283 8.68031C269.283 6.78831 270.691 5.64431 272.979 5.64431C275.751 5.64431 277.247 7.22831 277.247 10.0883H284.375C284.375 7.14031 283.363 4.76431 281.295 2.96031C279.227 1.20031 276.499 0.320312 273.111 0.320312C269.767 0.320312 267.127 1.15631 265.147 2.78431C263.167 4.41231 262.155 6.61231 262.155 9.34031C262.155 13.3883 264.223 16.2043 268.403 17.7443L273.947 19.9003C276.763 21.0003 277.687 21.9683 277.687 23.8603C277.687 26.0163 276.191 27.2483 273.551 27.2483C270.427 27.2483 268.535 25.2683 268.535 21.9243H261.407C261.407 28.8323 265.939 32.8803 273.507 32.8803Z" fill="black"/>
<path d="M307.785 32.0003V26.2803H296.081V19.5043H307.785V13.9163H296.081V6.92031H307.785V1.20031H288.953V32.0003H307.785Z" fill="black"/>
<path d="M337.558 12.3323C337.558 9.12031 336.502 6.43631 334.434 4.32431C332.366 2.25631 329.726 1.20031 326.514 1.20031H313.402V32.0003H320.53V23.4643H324.27L329.11 32.0003H337.206L331.794 22.2323C335.358 20.4723 337.558 16.7763 337.558 12.3323ZM325.414 7.00831C328.274 7.00831 330.342 9.20831 330.342 12.3323C330.342 15.4563 328.274 17.6563 325.414 17.6563H320.53V7.00831H325.414Z" fill="black"/>
<path d="M355.21 32.0003L365.55 1.20031H357.894L351.514 22.9363L345.134 1.20031H337.478L347.818 32.0003H355.21Z" fill="black"/>
<path d="M375.53 32.0003V1.20031H368.402V32.0003H375.53Z" fill="black"/>
<path d="M396.248 32.8803C400.692 32.8803 404.344 31.7803 407.16 29.5803C409.932 27.4243 411.56 24.4763 411.956 20.8243H404.388C403.552 24.3443 400.648 26.5003 396.292 26.5003C390.528 26.5003 387.14 22.7163 387.14 16.6003C387.14 10.4843 390.528 6.70031 396.292 6.70031C400.648 6.70031 403.552 8.85631 404.388 12.3763H411.956C411.56 8.72431 409.932 5.77631 407.16 3.57631C404.344 1.42031 400.692 0.320312 396.248 0.320312C391.276 0.320312 387.272 1.81631 384.236 4.85231C381.2 7.88831 379.704 11.8043 379.704 16.6003C379.704 21.3963 381.2 25.2683 384.236 28.3043C387.272 31.3403 391.276 32.8803 396.248 32.8803Z" fill="black"/>
<path d="M434.801 32.0003V26.2803H423.097V19.5043H434.801V13.9163H423.097V6.92031H434.801V1.20031H415.969V32.0003H434.801Z" fill="black"/>
</svg>
