<svg width="422" height="33" viewBox="0 0 422 33" fill="none" xmlns="http://www.w3.org/2000/svg">
<path d="M16.676 32L22.792 12.64L34.1328 32H44.764V1.19995H37.7656V23.4999L25.564 1.19995H20.02L13.904 21.66L7.48 1.19995H0L10.868 32H16.676Z" fill="black"/>
<path d="M56.953 32V19.768H67.601V32H74.729V1.19995H67.601V13.652H56.953V1.19995H49.825V32H56.953Z" fill="black"/>
<path d="M106.24 32L85.064 1.19995H77.892V32H84V28.26H97.6595L100.5 32H106.24ZM84 8.98795L94 22.672H84V8.98795Z" fill="black"/>
<path d="M118.917 32V7.53595H127.409V1.19995H103.385V4.36795V7.53595H111.833V32H118.917Z" fill="black"/>
<path d="M150.421 31.9999C155.217 31.9999 159.045 30.5039 161.905 27.5559C164.721 24.6079 166.129 20.9559 166.129 16.5999C166.129 12.2439 164.721 8.59195 161.861 5.64395C159.001 2.69595 155.217 1.19995 150.421 1.19995H138.805V31.9999H150.421ZM145.933 7.18395H149.761C152.621 7.18395 154.865 8.10795 156.449 9.91195C157.989 11.7599 158.781 14.0039 158.781 16.5999C158.781 19.1959 157.989 21.4399 156.449 23.2439C154.865 25.0919 152.621 26.0159 149.761 26.0159H145.933V7.18395Z" fill="black"/>
<path d="M197.007 28.1279C199.999 25.0039 201.495 21.1319 201.495 16.5999C201.495 12.0679 199.999 8.19595 197.007 5.02795C194.015 1.90395 190.011 0.319946 185.039 0.319946C180.067 0.319946 176.063 1.90395 173.071 5.02795C170.079 8.19595 168.583 12.0679 168.583 16.5999C168.583 21.1319 170.079 25.0039 173.071 28.1279C176.063 31.2959 180.067 32.8799 185.039 32.8799C190.011 32.8799 194.015 31.2959 197.007 28.1279ZM185.039 26.4999C182.179 26.4999 179.979 25.5319 178.395 23.6399C176.767 21.7479 175.975 19.4159 176.019 16.5999C175.975 13.7839 176.767 11.4079 178.395 9.51595C179.979 7.62395 182.179 6.69995 185.039 6.69995C187.855 6.69995 190.055 7.62395 191.683 9.51595C193.267 11.4079 194.059 13.7839 194.059 16.5999C194.059 19.4159 193.267 21.7479 191.683 23.6399C190.055 25.5319 187.855 26.4999 185.039 26.4999Z" fill="black"/>
<path d="M227.584 13.3439L221.028 1.19995H212.756L223.668 20.3839L217.948 31.9999H225.868L241.136 1.19995H233.26L227.584 13.3439Z" fill="black"/>
<path d="M268.249 28.1279C271.241 25.0039 272.737 21.1319 272.737 16.5999C272.737 12.0679 271.241 8.19595 268.249 5.02795C265.257 1.90395 261.253 0.319946 256.281 0.319946C251.309 0.319946 247.305 1.90395 244.313 5.02795C241.321 8.19595 239.825 12.0679 239.825 16.5999C239.825 21.1319 241.321 25.0039 244.313 28.1279C247.305 31.2959 251.309 32.8799 256.281 32.8799C261.253 32.8799 265.257 31.2959 268.249 28.1279ZM256.281 26.4999C253.421 26.4999 251.221 25.5319 249.637 23.6399C248.009 21.7479 247.217 19.4159 247.261 16.5999C247.217 13.7839 248.009 11.4079 249.637 9.51595C251.221 7.62395 253.421 6.69995 256.281 6.69995C259.097 6.69995 261.297 7.62395 262.925 9.51595C264.509 11.4079 265.301 13.7839 265.301 16.5999C265.301 19.4159 264.509 21.7479 262.925 23.6399C261.297 25.5319 259.097 26.4999 256.281 26.4999Z" fill="black"/>
<path d="M297.675 29.8439C299.919 27.8639 301.019 25.1359 301.019 21.5719V1.19995H293.891V21.1319C293.891 24.6079 291.867 26.6319 288.567 26.6319C285.267 26.6319 283.243 24.6079 283.243 21.1319V1.19995H276.159V21.5719C276.159 25.1359 277.259 27.8639 279.503 29.8439C281.703 31.8239 284.739 32.7919 288.567 32.7919C292.395 32.7919 295.431 31.8239 297.675 29.8439Z" fill="black"/>
<path d="M334.2 15.8079V21.1759H339.7C338.644 24.8279 335.96 26.6759 331.648 26.6759C328.92 26.6759 326.72 25.7079 325.092 23.8159C323.42 21.9239 322.584 19.5479 322.628 16.5999C322.584 10.4839 325.884 6.30395 331.912 6.30395C335.564 6.30395 338.072 8.10795 338.644 10.7479H346.432C346.168 7.71195 344.716 5.24795 342.032 3.26795C339.348 1.28795 335.96 0.319946 331.868 0.319946C326.72 0.319946 322.628 1.90395 319.68 5.02795C316.688 8.15195 315.192 12.0679 315.192 16.7319C315.148 21.4399 316.644 25.2679 319.68 28.3039C322.672 31.3399 326.588 32.8799 331.472 32.8799C339.92 32.8799 345.464 28.6119 347.048 21.1759H349.952V15.8079H334.2Z" fill="black"/>
<path d="M372.437 31.9999V26.2799H360.733V19.5039H372.437V13.9159H360.733V6.91995H372.437V1.19995H353.605V31.9999H372.437Z" fill="black"/>
<path d="M390.514 31.9999V7.53594H399.006V1.19995H374.982V7.53594H383.43V31.9999H390.514Z" fill="black"/>
<path d="M413.63 21.2199V20.6919C413.63 19.5919 413.982 18.9319 415.346 17.9199L417.15 16.5999C419.834 14.5319 421.506 12.3759 421.506 8.89995C421.506 3.48795 417.37 0.407945 411.166 0.407945C403.598 0.407945 399.638 4.49995 399.638 10.3519H406.678C406.678 7.31595 408.35 5.77595 410.946 5.77595C413.014 5.77595 414.378 7.09595 414.378 9.20795C414.378 10.8799 413.542 12.2439 411.914 13.3439L409.846 14.7079C407.338 16.4239 406.678 17.9199 406.678 20.7799V21.2199H413.63ZM410.154 32.3959C412.662 32.3959 414.73 30.3279 414.73 27.8639C414.73 25.3999 412.662 23.3759 410.154 23.3759C407.558 23.3759 405.578 25.3999 405.578 27.8639C405.578 30.3279 407.558 32.3959 410.154 32.3959Z" fill="black"/>
</svg>
