<svg width="32" height="40" viewBox="0 0 32 40" fill="none" xmlns="http://www.w3.org/2000/svg">
<path d="M29.6019 21.2301C28.1601 19.6777 26.0574 18.648 23.7979 18.1469V17.9379C25.4118 17.2432 26.8198 16.1581 27.7666 14.6857C28.7135 13.2103 29.2115 11.5288 29.2115 9.63533C29.2115 8.00309 28.8825 6.56451 28.197 5.31344C27.5115 4.06544 26.4816 3.06643 25.0921 2.31947C23.8071 1.62477 22.4361 1.14832 20.9697 0.933144C19.5034 0.714898 17.3484 0.588867 14.5048 0.588867H0.560547V39.6427H16.3278C19.0176 39.6427 21.2341 39.2738 22.9802 38.7881C24.7232 38.3024 26.3249 37.4233 27.782 36.2767C29.0147 35.3238 29.9954 34.0851 30.7239 32.625C31.4525 31.1679 31.7907 29.4589 31.7907 27.5346C31.7876 24.8941 31.0437 22.7854 29.6019 21.2301ZM10.241 7.68648H11.1694C12.9032 7.68648 14.2097 7.72337 15.0889 7.74796C15.965 7.77563 16.7243 7.93854 17.3668 8.21519C18.0431 8.51029 18.5411 8.99289 18.8639 9.65377C19.1836 10.3147 19.3466 10.9571 19.3466 11.5842C19.3466 12.4356 19.199 13.1826 18.9039 13.825C18.6088 14.4675 18.0708 14.9716 17.29 15.3343C16.5768 15.6632 15.8882 15.9184 15.2211 15.9553C14.554 15.9891 13.3858 16.0813 11.7196 16.0813H10.2441V7.68648H10.241ZM21.1788 29.8462C20.7699 30.5839 20.1243 31.1434 19.239 31.5245C18.2337 31.9579 17.2439 32.3207 16.2724 32.3575C15.301 32.3913 13.5488 32.5389 11.0126 32.5389H10.241V22.5334H12.2884C14.0222 22.5334 15.4086 22.5641 16.4415 22.5918C17.4744 22.6164 18.286 22.7516 18.8762 22.9791C19.8477 23.3264 20.5762 23.8429 21.0619 24.5191C21.5477 25.1954 21.7905 26.136 21.7905 27.3317C21.7905 28.2693 21.5876 29.1084 21.1788 29.8462Z" fill="white"></path>
</svg>
