<svg width="483" height="33" viewBox="0 0 483 33" fill="none" xmlns="http://www.w3.org/2000/svg">
<path d="M435.348 31.9992L414.172 1.19922H407L407 31.9992H413.108V28.2592H426.768L429.608 31.9992H435.348ZM413.108 8.98722L423.108 22.6712H413.108V8.98722Z" fill="black"></path>
<path d="M8.12019 31.9998V21.3518H19.8242V15.4998H8.12019V7.18383H19.8242V1.19982H0.992188V31.9998H8.12019Z" fill="black"></path>
<path d="M48.9529 12.3318C48.9529 9.11982 47.8969 6.43582 45.8289 4.32382C43.7609 2.25582 41.1209 1.19982 37.9089 1.19982H24.7969V31.9998H31.9249V23.4638H35.6649L40.5049 31.9998H48.6009L43.1889 22.2318C46.7529 20.4718 48.9529 16.7758 48.9529 12.3318ZM36.8089 7.00782C39.6689 7.00782 41.7369 9.20782 41.7369 12.3318C41.7369 15.4558 39.6689 17.6558 36.8089 17.6558H31.9249V7.00782H36.8089Z" fill="black"></path>
<path d="M72.2461 31.9998V26.2798H60.5421V19.5038H72.2461V13.9158H60.5421V6.91982H72.2461V1.19982H53.4141V31.9998H72.2461Z" fill="black"></path>
<path d="M96.6953 31.9998V26.2798H84.9913V19.5038H96.6953V13.9158H84.9913V6.91982H96.6953V1.19982H77.8633V31.9998H96.6953Z" fill="black"></path>
<path d="M127.62 31.9998L137.96 1.19982H130.304L123.924 22.9358L117.544 1.19982H109.888L120.228 31.9998H127.62Z" fill="black"></path>
<path d="M147.941 31.9998V1.19982H140.812V31.9998H147.941Z" fill="black"></path>
<path d="M165.534 31.9998C170.33 31.9998 174.158 30.5038 177.018 27.5558C179.834 24.6078 181.242 20.9558 181.242 16.5998C181.242 12.2438 179.834 8.59183 176.974 5.64382C174.114 2.69582 170.33 1.19982 165.534 1.19982H153.918V31.9998H165.534ZM161.046 7.18383H164.874C167.734 7.18383 169.978 8.10782 171.562 9.91182C173.102 11.7598 173.894 14.0038 173.894 16.5998C173.894 19.1958 173.102 21.4398 171.562 23.2438C169.978 25.0918 167.734 26.0158 164.874 26.0158H161.046V7.18383Z" fill="black"></path>
<path d="M204.117 31.9998V26.2798H192.413V19.5038H204.117V13.9158H192.413V6.91982H204.117V1.19982H185.285V31.9998H204.117Z" fill="black"></path>
<path d="M235.925 28.1278C238.917 25.0038 240.413 21.1318 240.413 16.5998C240.413 12.0678 238.917 8.19583 235.925 5.02782C232.933 1.90382 228.929 0.319824 223.957 0.319824C218.985 0.319824 214.981 1.90382 211.989 5.02782C208.997 8.19583 207.501 12.0678 207.501 16.5998C207.501 21.1318 208.997 25.0038 211.989 28.1278C214.981 31.2958 218.985 32.8798 223.957 32.8798C228.929 32.8798 232.933 31.2958 235.925 28.1278ZM223.957 26.4998C221.097 26.4998 218.897 25.5318 217.313 23.6398C215.685 21.7478 214.893 19.4158 214.937 16.5998C214.893 13.7838 215.685 11.4078 217.313 9.51582C218.897 7.62382 221.097 6.69982 223.957 6.69982C226.773 6.69982 228.973 7.62382 230.601 9.51582C232.185 11.4078 232.977 13.7838 232.977 16.5998C232.977 19.4158 232.185 21.7478 230.601 23.6398C228.973 25.5318 226.773 26.4998 223.957 26.4998Z" fill="black"></path>
<path d="M267.998 31.9998V7.53582H276.49V1.19982H252.466V7.53582H260.914V31.9998H267.998Z" fill="black"></path>
<path d="M300.5 29.8438C302.743 27.8638 303.844 25.1358 303.844 21.5718V1.19982H296.716V21.1318C296.716 24.6078 294.691 26.6318 291.392 26.6318C288.092 26.6318 286.068 24.6078 286.068 21.1318V1.19982H278.983V21.5718C278.983 25.1358 280.084 27.8638 282.328 29.8438C284.528 31.8238 287.564 32.7918 291.392 32.7918C295.22 32.7918 298.256 31.8238 300.5 29.8438Z" fill="black"></path>
<path d="M321.881 31.9998V7.53582H330.373V1.19982H306.349V7.53582H314.797V31.9998H321.881Z" fill="black"></path>
<path d="M358.772 28.1278C361.764 25.0038 363.26 21.1318 363.26 16.5998C363.26 12.0678 361.764 8.19583 358.772 5.02782C355.78 1.90382 351.776 0.319824 346.804 0.319824C341.832 0.319824 337.828 1.90382 334.836 5.02782C331.844 8.19583 330.348 12.0678 330.348 16.5998C330.348 21.1318 331.844 25.0038 334.836 28.1278C337.828 31.2958 341.832 32.8798 346.804 32.8798C351.776 32.8798 355.78 31.2958 358.772 28.1278ZM346.804 26.4998C343.944 26.4998 341.744 25.5318 340.16 23.6398C338.532 21.7478 337.74 19.4158 337.784 16.5998C337.74 13.7838 338.532 11.4078 340.16 9.51582C341.744 7.62382 343.944 6.69982 346.804 6.69982C349.62 6.69982 351.82 7.62382 353.448 9.51582C355.032 11.4078 355.824 13.7838 355.824 16.5998C355.824 19.4158 355.032 21.7478 353.448 23.6398C351.82 25.5318 349.62 26.4998 346.804 26.4998Z" fill="black"></path>
<path d="M391.543 12.3318C391.543 9.11982 390.487 6.43582 388.419 4.32382C386.351 2.25582 383.711 1.19982 380.499 1.19982H367.387V31.9998H374.515V23.4638H378.255L383.095 31.9998H391.191L385.779 22.2318C389.343 20.4718 391.543 16.7758 391.543 12.3318ZM379.399 7.00782C382.259 7.00782 384.327 9.20782 384.327 12.3318C384.327 15.4558 382.259 17.6558 379.399 17.6558H374.515V7.00782H379.399Z" fill="black"></path>
<path d="M403.132 31.9998V1.19982H396.004V31.9998H403.132Z" fill="black"></path>
<path d="M456.638 31.9998V25.6638H445.198V1.19982H438.07V31.9998H456.638Z" fill="black"></path>
<path d="M470.878 32.8798C474.266 32.8798 477.038 31.9998 479.106 30.2838C481.174 28.5678 482.186 26.2358 482.186 23.3758C482.186 19.1958 480.118 16.3358 475.982 14.7078L470.878 12.6838C467.842 11.4518 466.654 10.3958 466.654 8.67982C466.654 6.78782 468.062 5.64382 470.35 5.64382C473.122 5.64382 474.618 7.22782 474.618 10.0878H481.746C481.746 7.13982 480.734 4.76382 478.666 2.95982C476.598 1.19982 473.87 0.319824 470.482 0.319824C467.138 0.319824 464.498 1.15582 462.518 2.78382C460.538 4.41182 459.526 6.61182 459.526 9.33982C459.526 13.3878 461.594 16.2038 465.774 17.7438L471.318 19.8998C474.134 20.9998 475.058 21.9678 475.058 23.8598C475.058 26.0158 473.562 27.2478 470.922 27.2478C467.798 27.2478 465.906 25.2678 465.906 21.9238H458.778C458.778 28.8318 463.31 32.8798 470.878 32.8798Z" fill="black"></path>
</svg>
