<svg width="353" height="33" viewBox="0 0 353 33" fill="none" xmlns="http://www.w3.org/2000/svg">
<path d="M158.555 32.0002L137.379 1.2002H130.207L130.207 32.0002H136.315V28.2602H149.975L152.815 32.0002H158.555ZM136.315 8.9882L146.315 22.6722H136.315V8.9882Z" fill="black"></path>
<path d="M7.128 31.9998V21.3518H18.832V15.4998H7.128V7.18383H18.832V1.19982H0V31.9998H7.128Z" fill="black"></path>
<path d="M42.6367 31.9998V26.2798H30.9327V19.5038H42.6367V13.9158H30.9327V6.91982H42.6367V1.19982H23.8047V31.9998H42.6367Z" fill="black"></path>
<path d="M67.0859 31.9998V26.2798H55.3819V19.5038H67.0859V13.9158H55.3819V6.91982H67.0859V1.19982H48.2539V31.9998H67.0859Z" fill="black"></path>
<path d="M84.3191 31.9998C89.1151 31.9998 92.9431 30.5038 95.8031 27.5558C98.6191 24.6078 100.027 20.9558 100.027 16.5998C100.027 12.2438 98.6191 8.59183 95.7591 5.64382C92.8991 2.69582 89.1151 1.19982 84.3191 1.19982H72.7031V31.9998H84.3191ZM79.8311 7.18383H83.6591C86.5191 7.18383 88.7631 8.10782 90.3471 9.91182C91.8871 11.7598 92.6791 14.0038 92.6791 16.5998C92.6791 19.1958 91.8871 21.4398 90.3471 23.2438C88.7631 25.0918 86.5191 26.0158 83.6591 26.0158H79.8311V7.18383Z" fill="black"></path>
<path d="M120.746 16.2478C124.398 15.5438 126.642 13.1238 126.642 9.20782C126.642 4.23582 122.858 1.19982 116.742 1.19982H104.07V31.9998H117.226C123.342 31.9998 127.082 28.7438 127.082 23.4638C127.082 19.2838 124.442 16.5998 120.746 16.2478ZM115.158 6.34783C117.93 6.34783 119.514 7.75583 119.514 10.0878C119.514 12.4198 117.842 13.8278 115.158 13.8278H111.198V6.34783H115.158ZM111.198 26.5878V18.7558H115.642C118.238 18.7558 119.91 20.2518 119.91 22.5398C119.91 25.0478 118.282 26.5878 115.642 26.5878H111.198Z" fill="black"></path>
<path d="M172.693 32.8798C177.137 32.8798 180.789 31.7798 183.605 29.5798C186.377 27.4238 188.005 24.4758 188.401 20.8238H180.833C179.997 24.3438 177.093 26.4998 172.737 26.4998C166.973 26.4998 163.585 22.7158 163.585 16.5998C163.585 10.4838 166.973 6.69982 172.737 6.69982C177.093 6.69982 179.997 8.85582 180.833 12.3758H188.401C188.005 8.72382 186.377 5.77582 183.605 3.57582C180.789 1.41982 177.137 0.319824 172.693 0.319824C167.721 0.319824 163.717 1.81582 160.681 4.85182C157.645 7.88782 156.149 11.8038 156.149 16.5998C156.149 21.3958 157.645 25.2678 160.681 28.3038C163.717 31.3398 167.721 32.8798 172.693 32.8798Z" fill="black"></path>
<path d="M209.706 1.19982L199.542 14.8838V1.19982H192.414V31.9998H199.542V18.4038L209.662 31.9998H218.154L206.054 16.4678L218.154 1.19982H209.706Z" fill="black"></path>
<path d="M239.331 31.9998V21.3518H251.035V15.4998H239.331V7.18383H251.035V1.19982H232.203V31.9998H239.331Z" fill="black"></path>
<path d="M282.757 28.1278C285.749 25.0038 287.245 21.1318 287.245 16.5998C287.245 12.0678 285.749 8.19583 282.757 5.02782C279.765 1.90382 275.761 0.319824 270.789 0.319824C265.817 0.319824 261.813 1.90382 258.821 5.02782C255.829 8.19583 254.333 12.0678 254.333 16.5998C254.333 21.1318 255.829 25.0038 258.821 28.1278C261.813 31.2958 265.817 32.8798 270.789 32.8798C275.761 32.8798 279.765 31.2958 282.757 28.1278ZM270.789 26.4998C267.929 26.4998 265.729 25.5318 264.145 23.6398C262.517 21.7478 261.725 19.4158 261.769 16.5998C261.725 13.7838 262.517 11.4078 264.145 9.51582C265.729 7.62382 267.929 6.69982 270.789 6.69982C273.605 6.69982 275.805 7.62382 277.433 9.51582C279.017 11.4078 279.809 13.7838 279.809 16.5998C279.809 19.4158 279.017 21.7478 277.433 23.6398C275.805 25.5318 273.605 26.4998 270.789 26.4998Z" fill="black"></path>
<path d="M315.527 12.3318C315.527 9.11982 314.471 6.43582 312.403 4.32382C310.335 2.25582 307.695 1.19982 304.483 1.19982H291.371V31.9998H298.499V23.4638H302.239L307.079 31.9998H315.175L309.763 22.2318C313.327 20.4718 315.527 16.7758 315.527 12.3318ZM303.383 7.00782C306.243 7.00782 308.311 9.20782 308.311 12.3318C308.311 15.4558 306.243 17.6558 303.383 17.6558H298.499V7.00782H303.383Z" fill="black"></path>
<path d="M326.808 31.9998V11.8918L333.804 31.9998H339.084L345.904 12.0238V31.9998H352.724V1.19982H344.628L336.444 23.0678L328.26 1.19982H319.988V31.9998H326.808Z" fill="black"></path>
</svg>
