<svg width="605" height="33" viewBox="0 0 605 33" fill="none" xmlns="http://www.w3.org/2000/svg">
<path d="M17.176 32.0001L23.292 12.6401L34.6328 32.0001H45.264V1.20007H38.2656V23.5L26.064 1.20007H20.52L14.404 21.6601L7.98 1.20007H0.5L11.368 32.0001H17.176Z" fill="black"></path>
<path d="M57.453 32.0001V19.7681H68.101V32.0001H75.229V1.20007H68.101V13.6521H57.453V1.20007H50.325V32.0001H57.453Z" fill="black"></path>
<path d="M106.74 32.0001L85.564 1.20007H78.392V32.0001H84.5V28.2601H98.1595L101 32.0001H106.74ZM84.5 8.98807L94.5 22.6721H84.5V8.98807Z" fill="black"></path>
<path d="M119.417 32.0001V7.53607H127.909V1.20007H103.885V4.36807V7.53607H112.333V32.0001H119.417Z" fill="black"></path>
<path d="M153.421 32.0001C158.217 32.0001 162.045 30.5041 164.905 27.5561C167.721 24.6081 169.129 20.9561 169.129 16.6001C169.129 12.2441 167.721 8.59207 164.861 5.64407C162.001 2.69607 158.217 1.20007 153.421 1.20007H141.805V32.0001H153.421ZM148.933 7.18407H152.761C155.621 7.18407 157.865 8.10807 159.449 9.91207C160.989 11.7601 161.781 14.0041 161.781 16.6001C161.781 19.1961 160.989 21.4401 159.449 23.2441C157.865 25.0921 155.621 26.0161 152.761 26.0161H148.933V7.18407Z" fill="black"></path>
<path d="M200.007 28.1281C202.999 25.0041 204.495 21.1321 204.495 16.6001C204.495 12.0681 202.999 8.19607 200.007 5.02807C197.015 1.90407 193.011 0.320068 188.039 0.320068C183.067 0.320068 179.063 1.90407 176.071 5.02807C173.079 8.19607 171.583 12.0681 171.583 16.6001C171.583 21.1321 173.079 25.0041 176.071 28.1281C179.063 31.2961 183.067 32.8801 188.039 32.8801C193.011 32.8801 197.015 31.2961 200.007 28.1281ZM188.039 26.5001C185.179 26.5001 182.979 25.5321 181.395 23.6401C179.767 21.7481 178.975 19.4161 179.019 16.6001C178.975 13.7841 179.767 11.4081 181.395 9.51607C182.979 7.62407 185.179 6.70007 188.039 6.70007C190.855 6.70007 193.055 7.62407 194.683 9.51607C196.267 11.4081 197.059 13.7841 197.059 16.6001C197.059 19.4161 196.267 21.7481 194.683 23.6401C193.055 25.5321 190.855 26.5001 188.039 26.5001Z" fill="black"></path>
<path d="M227.454 32.0001V26.2801H215.75V19.5041H227.454V13.9161H215.75V6.92007H227.454V1.20007H208.622V32.0001H227.454Z" fill="black"></path>
<path d="M242.546 32.8801C245.934 32.8801 248.706 32.0001 250.774 30.2841C252.842 28.5681 253.854 26.2361 253.854 23.3761C253.854 19.1961 251.786 16.3361 247.65 14.7081L242.546 12.6841C239.51 11.4521 238.322 10.3961 238.322 8.68007C238.322 6.78807 239.73 5.64407 242.018 5.64407C244.79 5.64407 246.286 7.22807 246.286 10.0881H253.414C253.414 7.14007 252.402 4.76407 250.334 2.96007C248.266 1.20007 245.538 0.320068 242.15 0.320068C238.806 0.320068 236.166 1.15607 234.186 2.78407C232.206 4.41207 231.194 6.61207 231.194 9.34007C231.194 13.3881 233.262 16.2041 237.442 17.7441L242.986 19.9001C245.802 21.0001 246.726 21.9681 246.726 23.8601C246.726 26.0161 245.23 27.2481 242.59 27.2481C239.466 27.2481 237.574 25.2681 237.574 21.9241H230.446C230.446 28.8321 234.978 32.8801 242.546 32.8801Z" fill="black"></path>
<path d="M275.82 32.0001V1.20007H268.692V32.0001H275.82Z" fill="black"></path>
<path d="M294.557 32.0001V7.53607H303.049V1.20007H279.025V7.53607H287.473V32.0001H294.557Z" fill="black"></path>
<path d="M323.766 32.0001V11.8921L330.762 32.0001H336.042L342.862 12.0241V32.0001H349.682V1.20007H341.586L333.402 23.0681L325.218 1.20007H316.946V32.0001H323.766Z" fill="black"></path>
<path d="M374.493 32.0001V26.2801H362.789V19.5041H374.493V13.9161H362.789V6.92007H374.493V1.20007H355.661V32.0001H374.493Z" fill="black"></path>
<path d="M415.891 32.0001V12.0681L426.583 32.0001H433.887V1.20007H427.067V21.1321L416.375 1.20007H409.071V32.0001H415.891Z" fill="black"></path>
<path d="M463.339 32.0001V7.53607H471.831V1.20007H447.807V7.53607H456.255V32.0001H463.339Z" fill="black"></path>
<path d="M500.23 28.1281C503.222 25.0041 504.718 21.1321 504.718 16.6001C504.718 12.0681 503.222 8.19607 500.23 5.02807C497.238 1.90407 493.234 0.320068 488.262 0.320068C483.29 0.320068 479.286 1.90407 476.294 5.02807C473.302 8.19607 471.806 12.0681 471.806 16.6001C471.806 21.1321 473.302 25.0041 476.294 28.1281C479.286 31.2961 483.29 32.8801 488.262 32.8801C493.234 32.8801 497.238 31.2961 500.23 28.1281ZM488.262 26.5001C485.402 26.5001 483.202 25.5321 481.618 23.6401C479.99 21.7481 479.198 19.4161 479.242 16.6001C479.198 13.7841 479.99 11.4081 481.618 9.51607C483.202 7.62407 485.402 6.70007 488.262 6.70007C491.078 6.70007 493.278 7.62407 494.906 9.51607C496.49 11.4081 497.282 13.7841 497.282 16.6001C497.282 19.4161 496.49 21.7481 494.906 23.6401C493.278 25.5321 491.078 26.5001 488.262 26.5001Z" fill="black"></path>
<path d="M530.807 13.3441L524.251 1.20007H515.979L526.891 20.3841L521.171 32.0001H529.091L544.359 1.20007H536.483L530.807 13.3441Z" fill="black"></path>
<path d="M571.472 28.1281C574.464 25.0041 575.96 21.1321 575.96 16.6001C575.96 12.0681 574.464 8.19607 571.472 5.02807C568.48 1.90407 564.476 0.320068 559.504 0.320068C554.532 0.320068 550.528 1.90407 547.536 5.02807C544.544 8.19607 543.048 12.0681 543.048 16.6001C543.048 21.1321 544.544 25.0041 547.536 28.1281C550.528 31.2961 554.532 32.8801 559.504 32.8801C564.476 32.8801 568.48 31.2961 571.472 28.1281ZM559.504 26.5001C556.644 26.5001 554.444 25.5321 552.86 23.6401C551.232 21.7481 550.44 19.4161 550.484 16.6001C550.44 13.7841 551.232 11.4081 552.86 9.51607C554.444 7.62407 556.644 6.70007 559.504 6.70007C562.32 6.70007 564.52 7.62407 566.148 9.51607C567.732 11.4081 568.524 13.7841 568.524 16.6001C568.524 19.4161 567.732 21.7481 566.148 23.6401C564.52 25.5321 562.32 26.5001 559.504 26.5001Z" fill="black"></path>
<path d="M600.898 29.8441C603.142 27.8641 604.242 25.1361 604.242 21.5721V1.20007H597.114V21.1321C597.114 24.6081 595.09 26.6321 591.79 26.6321C588.49 26.6321 586.466 24.6081 586.466 21.1321V1.20007H579.382V21.5721C579.382 25.1361 580.482 27.8641 582.726 29.8441C584.926 31.8241 587.962 32.7921 591.79 32.7921C595.618 32.7921 598.654 31.8241 600.898 29.8441Z" fill="black"></path>
<path d="M406.135 32.0012L384.959 1.20117H377.787L377.787 32.0012H383.895V28.2612H397.555L400.395 32.0012H406.135ZM383.895 8.98917L393.895 22.6732H383.895V8.98917Z" fill="black"></path>
</svg>
