<svg width="744" height="419" viewBox="0 0 744 419" fill="none" xmlns="http://www.w3.org/2000/svg">
<rect x="713" y="33" width="27" height="27" fill="#C091BE" stroke="black" stroke-width="2"></rect>
<path fill-rule="evenodd" clip-rule="evenodd" d="M729.352 46.0219L723.037 39.7071L723.744 39L730.744 46L730.685 46.0591L730.707 46.081L723.707 53.081L723 52.3739L729.352 46.0219Z" fill="black"></path>
<circle cx="63.5" cy="169.5" r="11.5" fill="#C091BE"></circle>
<circle cx="498.5" cy="238.5" r="65.5" fill="#C091BE"></circle>
<path d="M606.001 153.5C605.383 157.213 605.157 158.181 604.502 159C602.923 160.975 531.356 162.787 494.411 163.474C493.554 163.49 492.81 162.969 492.528 162.16C485.538 142.162 475.495 102.305 475.002 91.5C474.5 80.5 481.501 77.6739 484.501 76.5C488.335 75 496.001 75.0001 501.501 82.5C507.344 90.4667 512.563 100.639 513.417 131.047C513.478 133.232 515.256 135 517.442 135H608.502C608.382 136.291 608.227 137.831 608.045 139.5M606.001 153.5C615.017 154.167 634.201 152.4 637.001 148C639.801 143.6 640.168 134.167 640.001 130H637.001C636.501 132.833 635.101 138.5 633.501 138.5C631.901 138.5 615.864 139.167 608.045 139.5M606.001 153.5C606.62 149.776 607.63 143.303 608.045 139.5" stroke="black" stroke-width="2"></path>
<circle cx="490.113" cy="356" r="20.5" transform="rotate(-135 490.113 356)" stroke="black" stroke-width="3"></circle>
<path d="M479.133 369.763C480.102 369.828 481.165 369.86 482.29 369.83C487.086 369.703 493.212 368.457 497.891 363.778C502.574 359.095 503.938 352.589 504.192 347.461C504.265 345.981 504.247 344.594 504.184 343.368C506.58 346.896 508.244 351.074 508.85 355.244C509.693 361.044 508.474 366.63 504.609 370.496C500.739 374.365 495.535 375.445 490.153 374.495C486.344 373.822 482.504 372.135 479.133 369.763Z" fill="black" stroke="black" stroke-width="3"></path>
<circle cx="718.695" cy="102.697" r="7.47832" transform="rotate(-135 718.695 102.697)" fill="black" stroke="black" stroke-width="3"></circle>
<circle cx="75.3262" cy="92.3262" r="17.8225" transform="rotate(-135 75.3262 92.3262)" fill="#F9DD64" stroke="black" stroke-width="3"></circle>
<path d="M1 408.5C9.16667 383.833 30.7 333.4 51.5 329C77.5 323.5 135 384 175 378C215 372 243 291 281.5 281.5C320 272 381 339.5 411.5 329C442 318.5 456.5 315 487.5 212C518.5 109 564.646 240.5 592 240.5C604.5 240.5 618.167 226.667 618.5 225.5" stroke="black" stroke-width="2"></path>
<rect x="589" y="263" width="143" height="144" stroke="black" stroke-width="2"></rect>
<circle cx="588.465" cy="408.465" r="5.89978" transform="rotate(-135 588.465 408.465)" fill="white" stroke="black" stroke-width="3"></circle>
<circle cx="733.465" cy="408.465" r="5.89978" transform="rotate(-135 733.465 408.465)" fill="white" stroke="black" stroke-width="3"></circle>
<circle cx="733.465" cy="262.465" r="5.89978" transform="rotate(-135 733.465 262.465)" fill="white" stroke="black" stroke-width="3"></circle>
<circle cx="588.465" cy="262.465" r="5.89978" transform="rotate(-135 588.465 262.465)" fill="white" stroke="black" stroke-width="3"></circle>
<rect x="593" y="66" width="64" height="64" stroke="black" stroke-width="2"></rect>
<line x1="626" y1="84" x2="626" y2="113" stroke="black" stroke-width="2"></line>
<line x1="637.5" y1="85" x2="612.5" y2="85" stroke="black" stroke-width="2"></line>
<path d="M641.041 195.121C641.431 194.731 642.065 194.731 642.455 195.121L648.819 201.485C649.21 201.876 649.21 202.509 648.819 202.899L626.192 225.527L618.414 217.749L641.041 195.121Z" stroke="black" stroke-width="2"></path>
<rect x="634.018" y="201.194" width="12.3453" height="0.654741" transform="rotate(45 634.018 201.194)" stroke="black" stroke-width="0.654741"></rect>
<line x1="707" y1="163" x2="707" y2="214" stroke="black" stroke-width="2"></line>
<line x1="731.5" y1="189.5" x2="680.5" y2="189.5" stroke="black" stroke-width="2"></line>
<path fill-rule="evenodd" clip-rule="evenodd" d="M233.707 59.1213C234.098 58.7308 234.098 58.0976 233.707 57.7071C233.317 57.3166 232.683 57.3166 232.293 57.7071L223.477 66.5229L215.133 57.8992C214.749 57.5023 214.116 57.4918 213.719 57.8759C213.322 58.2599 213.311 58.893 213.695 59.2899L222.063 67.9373L213.707 76.2929C213.317 76.6834 213.317 77.3166 213.707 77.7071C214.098 78.0976 214.731 78.0976 215.121 77.7071L223.454 69.3748L231.749 77.948C232.133 78.3449 232.766 78.3553 233.163 77.9713C233.56 77.5873 233.57 76.9542 233.186 76.5573L224.868 67.9604L233.707 59.1213Z" fill="black"></path>
<path fill-rule="evenodd" clip-rule="evenodd" d="M70.3086 170C70.8609 170 71.3086 169.552 71.3086 169C71.3086 168.448 70.8609 168 70.3086 168L64.6914 168L64.6914 163C64.6914 162.448 64.2437 162 63.6914 162C63.1391 162 62.6914 162.448 62.6914 163L62.6914 168L58.692 168C58.1397 168 57.692 168.448 57.692 169C57.692 169.552 58.1397 170 58.692 170L62.6914 170L62.6914 175C62.6914 175.552 63.1391 176 63.6914 176C64.2437 176 64.6914 175.552 64.6914 175L64.6914 170L70.3086 170Z" fill="black"></path>
<path d="M624.088 226.261L616.431 227.5L617.671 219.843L624.088 226.261Z" fill="#C4C4C4" stroke="black" stroke-width="2"></path>
<path fill-rule="evenodd" clip-rule="evenodd" d="M198 225V198.064L198.009 198.053L198 198.045V198H197.95L189 190.072V190H188.919L188.867 189.954L188.827 190H162V217L171 225H198ZM171 222.324V217H165.01L171 222.324ZM189 198V192.744L194.934 198H189ZM164.99 192L171.656 198H187V192H164.99ZM171 200.1V215H164V193.8L171 200.1Z" fill="black"></path>
<path d="M69.453 253.374L103.439 248.455L96.8535 268.467L69.453 253.374Z" stroke="black" stroke-width="2"></path>
<path d="M80.5037 251.985L103.041 248.499L97.0022 261.51L80.5037 251.985Z" fill="white" stroke="black" stroke-width="2"></path>
<rect x="100" y="106" width="73" height="52" stroke="black" stroke-width="2"></rect>
<path d="M170.923 106.5L136.5 141.572L102.077 106.5L170.923 106.5Z" stroke="black" stroke-width="2"></path>
<path d="M356.5 305.033C358.594 300.79 353.167 249.82 350.5 225H402V295.915C402 305.539 396.5 322.255 387.5 329.853C380.349 335.89 299.274 365.414 258.821 379.71C258.285 379.899 257.711 379.859 257.263 379.511C252.454 375.781 246.927 361.312 244.357 353.276C244.132 352.574 244.308 351.844 244.937 351.461C256.528 344.418 354.091 309.913 356.5 305.033Z" fill="black" stroke="black" stroke-width="2"></path>
<path d="M515.423 233.664C511.867 230.543 461.229 222.593 436.564 218.745L449.893 169L518.392 187.354C527.688 189.845 542.411 199.484 547.421 210.144C551.401 218.614 558.935 304.568 562.274 347.343C562.319 347.909 562.131 348.453 561.679 348.796C556.831 352.475 541.425 354.069 532.997 354.472C532.262 354.507 531.602 354.149 531.395 353.442C527.592 340.423 519.514 237.254 515.423 233.664Z" fill="black" stroke="black" stroke-width="2"></path>
<path d="M232 361.5C232 359.5 241 359 245.5 359C248.167 364 253.3 374.2 252.5 375C251.5 376 248 383.5 246.5 387.5C245.3 390.7 245.333 399.5 245.5 403.5C245.667 406 244.9 410.8 240.5 410C235 409 233.012 395.318 233.5 392C236 375 232 364 232 361.5Z" fill="#C091BE" stroke="black" stroke-width="2"></path>
<path d="M537.743 368.536C535.811 368.019 537.657 359.196 538.822 354.849C544.342 353.568 555.523 351.249 556.089 352.229C556.796 353.454 563.134 358.776 566.61 361.26C569.39 363.247 577.899 365.492 581.806 366.367C584.264 366.853 588.702 368.836 586.79 372.879C584.401 377.932 570.671 376.312 567.592 374.981C551.818 368.167 540.158 369.183 537.743 368.536Z" fill="#C091BE" stroke="black" stroke-width="2"></path>
<path d="M423.5 51.5C424.7 49.9 422.333 46.8333 421 45.5H432C437.167 48.3333 446.7 54.6 443.5 57C439.5 60 440 70 438.5 70.5C437.3 70.9 422 68 414.5 66.5C414.5 64 422 53.5 423.5 51.5Z" stroke="black" stroke-width="2"></path>
<path d="M454.5 19.5C453.28 20.72 449.393 22.6223 445.564 24.2987C441.476 26.088 436.928 25.1037 432.621 23.9391C429.52 23.1007 427.336 23.9696 429.5 29.5C434 41 443 42 447 42.5C451 43 456 35 457 35C457.8 35 458.333 36.6667 458.5 37.5C460 44.5 457.5 54.5 457 56C456.5 57.5 454.5 58.5 447.5 58C440.5 57.5 434 48.5 430.5 46.5C427 44.5 422.5 47 421.5 48.5C420.5 50 418 44 411.5 33.5C405 23 411.5 13 415 9.5C418.5 6 425.5 2.49997 428.5 1.49997C431.5 0.499971 439 1.49997 444 3.49997C449 5.49997 453 2.99997 456 4.49997C459 5.99997 459.5 7.99997 460 10.5C460.5 13 457 17 454.5 19.5Z" fill="black" stroke="black"></path>
<path d="M454.5 18C456 22.8333 459.4 32.8 461 34C462.6 35.2 459.167 35.1667 457 35" stroke="black" stroke-width="2"></path>
<rect x="244" y="80" width="214" height="144" fill="white" stroke="black" stroke-width="2"></rect>
<path fill-rule="evenodd" clip-rule="evenodd" d="M390.954 155.954L407.409 127.454L374.5 127.454L382.705 141.667L323.52 174.123L324 175L383.205 142.533L390.954 155.954Z" fill="black"></path>
<path d="M287 199C285.209 197.567 283.953 159.004 283.231 124.749C283.07 117.135 285.43 109.623 290.856 104.28C312.465 83.0006 357.492 53 371.002 53C382.065 53 385 60.5 385 71.5001C385 81.5 370 98.0556 357.5 105C353.094 107.448 343.636 113.605 323.514 122.482C319.255 124.362 316.381 128.471 316.193 133.123L313.5 199.5C312.209 199.38 313.5 199.5 310.5 199.5C310.833 207.319 312.5 219.9 312.5 221.5C312.5 222.645 315.656 222.919 318.489 223.166L318.489 223.166C320.235 223.318 321.5 224.778 321.5 226.53C321.5 226.651 321.494 226.771 321.482 226.889C321.307 228.658 319.85 230.028 318.035 229.923C312.079 229.578 302.043 228.253 298.502 226C294.102 223.2 291.333 208.517 292 199.5C288 199.5 287.819 199.655 287 199Z" fill="#C091BE"></path>
<path d="M292 199.5C288 199.5 287.819 199.655 287 199C285.209 197.567 283.953 159.004 283.231 124.749C283.07 117.135 285.43 109.623 290.856 104.28C312.465 83.0006 357.492 53 371.002 53C382.065 53 385 60.5 385 71.5001C385 81.5 370 98.0556 357.5 105C353.094 107.448 343.636 113.605 323.514 122.482C319.255 124.362 316.381 128.471 316.193 133.123L313.5 199.5C312.209 199.38 313.5 199.5 310.5 199.5M292 199.5C291.333 208.517 294.102 223.2 298.502 226M292 199.5C296 199.5 306.5 199.5 310.5 199.5M292 199.5L310.5 199.5M298.502 226C302.043 228.253 312.079 229.578 318.035 229.923C319.971 230.035 321.5 228.468 321.5 226.53V226.53C321.5 224.778 320.235 223.318 318.489 223.166C315.656 222.919 312.5 222.645 312.5 221.5M298.502 226C302.043 228.253 312.079 229.578 318.035 229.923C319.971 230.035 321.5 228.468 321.5 226.53C321.5 224.778 320.235 223.318 318.49 223.166C315.656 222.919 312.5 222.645 312.5 221.5M312.5 221.5C312.5 219.9 310.833 207.319 310.5 199.5" stroke="black" stroke-width="2"></path>
<path d="M298.502 226C294.102 223.2 291.333 208.517 292 199.5L310.5 199.5C310.833 207.319 312.5 219.9 312.5 221.5C312.5 221.648 312.552 221.781 312.65 221.901C313.119 222.481 314.633 222.768 316.358 222.962C317.052 223.041 317.781 223.104 318.489 223.166C318.489 223.166 318.489 223.166 318.489 223.166L318.489 223.166C320.235 223.318 321.5 224.778 321.5 226.53C321.5 226.772 321.476 227.009 321.431 227.237C321.24 228.188 320.673 228.994 319.888 229.469C319.354 229.792 318.72 229.963 318.035 229.923C315.802 229.794 312.994 229.527 310.171 229.124C305.465 228.454 300.715 227.408 298.502 226Z" fill="white"></path>
<path d="M318.489 223.166L318.489 223.166C318.489 223.166 318.489 223.166 318.489 223.166Z" fill="white"></path>
<path d="M313.5 199.5C312.209 199.38 313.5 199.5 310.5 199.5M287 199C287.819 199.655 288 199.5 292 199.5M292 199.5C291.333 208.517 294.102 223.2 298.502 226M292 199.5C296 199.5 306.5 199.5 310.5 199.5M292 199.5L310.5 199.5M298.502 226C302.043 228.253 312.079 229.578 318.035 229.923C319.971 230.035 321.5 228.468 321.5 226.53V226.53C321.5 224.778 320.235 223.318 318.489 223.166C315.656 222.919 312.5 222.645 312.5 221.5M298.502 226C302.043 228.253 312.079 229.578 318.035 229.923C319.971 230.035 321.5 228.468 321.5 226.53C321.5 224.778 320.235 223.318 318.489 223.166C315.656 222.919 312.5 222.645 312.5 221.5M312.5 221.5C312.5 219.9 310.833 207.319 310.5 199.5" stroke="black" stroke-width="2"></path>
</svg>
