<svg width="41" height="41" viewBox="0 0 41 41" fill="none" xmlns="http://www.w3.org/2000/svg">
<path d="M20.052 4.16378C25.3915 4.16378 26.0248 4.1853 28.1336 4.28059C30.0825 4.36973 31.143 4.69556 31.847 4.96914C32.7815 5.33186 33.4455 5.76528 34.1463 6.46613C34.8472 7.16697 35.2806 7.83093 35.6434 8.7654C35.9169 9.46932 36.2428 10.5298 36.3319 12.4787C36.4272 14.5873 36.4487 15.2206 36.4487 20.5599C36.4487 25.8993 36.4272 26.5325 36.3319 28.6412C36.2428 30.59 35.9169 31.6505 35.6434 32.3544C35.2806 33.2889 34.8472 33.9529 34.1463 34.6537C33.4455 35.3546 32.7815 35.788 31.847 36.1507C31.143 36.4243 30.0825 36.7501 28.1336 36.8393C26.0248 36.9345 25.3915 36.9561 20.052 36.9561C14.7124 36.9561 14.0792 36.9345 11.9704 36.8393C10.0215 36.7501 8.96093 36.4243 8.25698 36.1507C7.32248 35.788 6.6585 35.3546 5.95763 34.6537C5.25675 33.9529 4.82332 33.2889 4.46058 32.3544C4.187 31.6505 3.86115 30.59 3.77201 28.6412C3.67671 26.5325 3.65519 25.8993 3.65519 20.5599C3.65519 15.2206 3.67671 14.5873 3.77201 12.4787C3.86115 10.5298 4.187 9.46932 4.46058 8.7654C4.82332 7.83093 5.25675 7.16697 5.95763 6.46613C6.6585 5.76528 7.32248 5.33186 8.25698 4.96914C8.96093 4.69556 10.0215 4.36973 11.9704 4.28059C14.0792 4.18222 14.7124 4.16378 20.052 4.16378ZM20.052 0.558105C14.6202 0.558105 13.9378 0.579623 11.8075 0.677987C9.67717 0.776352 8.22625 1.11448 6.9536 1.6063C5.63793 2.11657 4.52205 2.80205 3.41233 3.91172C2.29954 5.02447 1.61711 6.14029 1.10682 7.45284C0.611908 8.72544 0.273779 10.1794 0.178485 12.3065C0.0801164 14.4398 0.0585938 15.1191 0.0585938 20.5507C0.0585938 25.9823 0.0801164 26.6647 0.178485 28.7949C0.276853 30.9251 0.614982 32.376 1.10682 33.6486C1.61711 34.9642 2.30262 36.08 3.41233 37.1897C4.52513 38.3024 5.641 38.9848 6.9536 39.4951C8.22625 39.99 9.68025 40.3281 11.8075 40.4234C13.9408 40.5218 14.6233 40.5433 20.052 40.5433C25.4807 40.5433 26.1662 40.5218 28.2965 40.4234C30.4268 40.325 31.8777 39.9869 33.1503 39.4951C34.466 38.9848 35.5819 38.2994 36.6916 37.1897C37.8044 36.0769 38.4868 34.9611 38.9971 33.6486C39.492 32.376 39.8302 30.922 39.9255 28.7949C40.0238 26.6616 40.0454 25.9823 40.0454 20.5507C40.0454 15.1191 40.0238 14.4367 39.9255 12.3065C39.8271 10.1763 39.489 8.72544 38.9971 7.45284C38.4868 6.13722 37.8013 5.0214 36.6916 3.91172C35.5788 2.79897 34.4629 2.11657 33.1503 1.6063C31.8777 1.11141 30.4237 0.773278 28.2965 0.677987C26.1631 0.582696 25.4838 0.558105 20.052 0.558105Z" fill="white"/>
<path d="M20.0515 10.29C14.38 10.29 9.78125 14.8886 9.78125 20.5599C9.78125 26.2312 14.38 30.8298 20.0515 30.8298C25.7231 30.8298 30.3218 26.2312 30.3218 20.5599C30.3218 14.8886 25.7231 10.29 20.0515 10.29ZM20.0515 27.2241C16.3689 27.2241 13.384 24.2394 13.384 20.5568C13.384 16.8743 16.3689 13.8896 20.0515 13.8896C23.7342 13.8896 26.7191 16.8743 26.7191 20.5568C26.7191 24.2394 23.7342 27.2241 20.0515 27.2241Z" fill="white"/>
<path d="M30.7289 12.2848C32.0549 12.2848 33.1298 11.21 33.1298 9.88411C33.1298 8.55823 32.0549 7.4834 30.7289 7.4834C29.403 7.4834 28.3281 8.55823 28.3281 9.88411C28.3281 11.21 29.403 12.2848 30.7289 12.2848Z" fill="white"/>
</svg>
